<svg xmlns="http://www.w3.org/2000/svg" viewBox="0 0 100 100"><path d="M50.2 12h24v69.3H50z"/><path d="M21.5 44.4h28.7v37H21.5zM74 59h19.3v22.3H74z"/><path fill="#fff" d="M59 20.5h6V28h-6zm0 16.2h6v7.5h-6zM59 53h6v7.4h-6zm22 13.5h6V74h-6z"/><path d="M44 49.2l2.7-.3h.3l3.2 1v2L47 53h-3l-1 4 2.7 1 .3.2 2.4 2.2-1.2 2.5-3.2-1-1-1-2-1-2.5 3 2 2 1.3 3-2 1.7-3-1.7-1.8-2-3.5 1.7 1 2.6v.3l-.5 4h-2.6L27.6 72l-.5-2.6h-4v3l-1 2.8-2.3-.6-.4-3.3V71l1-2.6-3.7-1.7-2 2.3-.2.2-2.5 2-2.3-2 1-3V66l2-2-3-3-2 1.4-.2.2-3 .4-1-2.5 3-2.2V58l2.5-.8-1-4-2.7.4-3-1V50l3-1h3l1-4-3-.8V44l-3-2 1.2-2.5L8 40l2.3 1.5 2.5-3-2-2v-.3l-1.3-3 2.2-1.8 2.6 2h.2l1.5 2.4 4-1.8-1-2.5V28l2.7-.7 1.5 2.8v1l.4 3h4l.2-2v-1l1.8-2.5 2.7.6.2 3-.5 3 3.6 1.7L37 34l.2-.3 2.8-2 2 2-1 3-.3.2-2 2 2.6 3 2.3-2H47l1 2.3-2.4 2.2h-.4l-2.6 1z"/><path fill="#fff" d="M21.5 44.4V75l.4.2 1-2.8v-3h4l1 2.6v.4l1 2.8 2.7-.6.2-3.3V71l-1-2.6 3.5-1.7 2 2.3v.2l3 2 2-2-1-3-.5-.2-2-2 2.7-3 2.3 1.4.3.2 3 .4 1-2.5-3-2.2-.5-.2h-2l1-4 2.8 1h.3l3.6-1v-3l-3-1h-3l-1-4 2.3-1H21z"/><path stroke="#000" d="M40.7 83.4h48m-38.7 2h48.8m-76 2h66"/><circle cx="25.9" cy="51.3" r="9.5" stroke="#fff" stroke-width="4.3"/></svg>